{"asset":{"version":"2.0","generator":"Itajai Drive urban10 seed"},"extras":{"itajaiColliderRadius":1.0},"buffers":[{"byteLength":960,"uri":"data:application/octet-stream;base64,"}],"bufferViews":[{"buffer":0,"byteOffset":0,"byteLength":384,"target":34962},{"buffer":0,"byteOffset":384,"byteLength":576,"target":34963}],"accessors":[{"bufferView":0,"byteOffset":0,"componentType":5126,"count":32,"type":"VEC3","min":[-0.9,-0.0050000000000000044,-0.275],"max":[0.9,1.425,0.29000000000000004]},{"bufferView":1,"byteOffset":0,"componentType":5125,"count":144,"type":"SCALAR"}],"meshes":[{"name":"urban_bench","primitives":[{"attributes":{"POSITION":0},"indices":1,"mode":4}]}],"nodes":[{"mesh":0}],"scenes":[{"nodes":[0]}],"scene":0}