{"asset":{"version":"2.0","generator":"Itajai Drive urban10 seed"},"extras":{"itajaiColliderRadius":1.45},"buffers":[{"byteLength":1200,"uri":"data:application/octet-stream;base64,"}],"bufferViews":[{"buffer":0,"byteOffset":0,"byteLength":480,"target":34962},{"buffer":0,"byteOffset":480,"byteLength":720,"target":34963}],"accessors":[{"bufferView":0,"byteOffset":0,"componentType":5126,"count":40,"type":"VEC3","min":[-1.35,0.0,-0.5],"max":[1.35,2.55,0.5]},{"bufferView":1,"byteOffset":0,"componentType":5125,"count":180,"type":"SCALAR"}],"meshes":[{"name":"bus_shelter","primitives":[{"attributes":{"POSITION":0},"indices":1,"mode":4}]}],"nodes":[{"mesh":0}],"scenes":[{"nodes":[0]}],"scene":0}