{"asset":{"version":"2.0","generator":"Itajai Drive"},"extras":{"itajaiColliderRadius":3.3},"buffers":[{"byteLength":168,"uri":"data:application/octet-stream;base64,"}],"bufferViews":[{"buffer":0,"byteOffset":0,"byteLength":96,"target":34962},{"buffer":0,"byteOffset":96,"byteLength":72,"target":34963}],"accessors":[{"bufferView":0,"componentType":5126,"count":8,"type":"VEC3","min":[-1.22,0.0,-3.025],"max":[1.22,2.5,3.025]},{"bufferView":1,"componentType":5123,"count":36,"type":"SCALAR"}],"meshes":[{"name":"port_container","primitives":[{"attributes":{"POSITION":0},"indices":1,"mode":4}]}],"nodes":[{"mesh":0}],"scenes":[{"nodes":[0]}],"scene":0}