{"asset":{"version":"2.0","generator":"Itajai Drive urban10 seed"},"extras":{"itajaiColliderRadius":2.05},"buffers":[{"byteLength":960,"uri":"data:application/octet-stream;base64,"}],"bufferViews":[{"buffer":0,"byteOffset":0,"byteLength":384,"target":34962},{"buffer":0,"byteOffset":384,"byteLength":576,"target":34963}],"accessors":[{"bufferView":0,"byteOffset":0,"componentType":5126,"count":32,"type":"VEC3","min":[-2.0,0.0,-0.06],"max":[2.0,0.83,0.06]},{"bufferView":1,"byteOffset":0,"componentType":5125,"count":144,"type":"SCALAR"}],"meshes":[{"name":"road_guardrail","primitives":[{"attributes":{"POSITION":0},"indices":1,"mode":4}]}],"nodes":[{"mesh":0}],"scenes":[{"nodes":[0]}],"scene":0}