{"asset":{"version":"2.0","generator":"Itajai Drive urban10 seed"},"extras":{"itajaiColliderRadius":0.32},"buffers":[{"byteLength":480,"uri":"data:application/octet-stream;base64,"}],"bufferViews":[{"buffer":0,"byteOffset":0,"byteLength":192,"target":34962},{"buffer":0,"byteOffset":192,"byteLength":288,"target":34963}],"accessors":[{"bufferView":0,"byteOffset":0,"componentType":5126,"count":16,"type":"VEC3","min":[-0.475,0.0,-0.045],"max":[0.475,2.51,0.045]},{"bufferView":1,"byteOffset":0,"componentType":5125,"count":72,"type":"SCALAR"}],"meshes":[{"name":"road_sign","primitives":[{"attributes":{"POSITION":0},"indices":1,"mode":4}]}],"nodes":[{"mesh":0}],"scenes":[{"nodes":[0]}],"scene":0}