{"asset":{"version":"2.0","generator":"Itajai Drive"},"extras":{"itajaiColliderRadius":0.22},"buffers":[{"byteLength":336,"uri":"data:application/octet-stream;base64,"}],"bufferViews":[{"buffer":0,"byteOffset":0,"byteLength":192,"target":34962},{"buffer":0,"byteOffset":192,"byteLength":144,"target":34963}],"accessors":[{"bufferView":0,"componentType":5126,"count":16,"type":"VEC3","min":[-0.09,0.0,-0.06],"max":[0.09,3.63,0.605]},{"bufferView":1,"componentType":5123,"count":72,"type":"SCALAR"}],"meshes":[{"name":"street_lamp","primitives":[{"attributes":{"POSITION":0},"indices":1,"mode":4}]}],"nodes":[{"mesh":0}],"scenes":[{"nodes":[0]}],"scene":0}