{"asset":{"version":"2.0","generator":"Itajai Drive named vehicle parts 5.0"},"extras":{"itajaiColliderRadius":0.55,"smoothNormals":true},"buffers":[{"byteLength":8964,"uri":"data:application/octet-stream;base64,"}],"bufferViews":[{"buffer":0,"byteOffset":0,"byteLength":5256,"target":34962},{"buffer":0,"byteOffset":5256,"byteLength":3708,"target":34963}],"accessors":[{"bufferView":0,"componentType":5126,"count":438,"type":"VEC3","min":[-1.5213469549092071,0,-1.4761156531071442],"max":[1.6090543532095438,4.65,1.4571340435769393]},{"bufferView":1,"componentType":5123,"count":1854,"type":"SCALAR"}],"meshes":[{"name":"urban_tree","primitives":[{"attributes":{"POSITION":0},"indices":1,"mode":4}]}],"nodes":[{"mesh":0}],"scenes":[{"nodes":[0]}],"scene":0}